<?xml version="1.0"?>
<svg version="1.1" xmlns="http://www.w3.org/2000/svg" width="400" height="200" style="border: dashed 2px #aaa"><path fill="#0f7a05" d="M24.984,96.8q-3.616,0-6.208,2.592q-2.624,2.624-2.624,6.24l0,4.832q0,3.552,2.624,6.176t6.208,2.624q3.616,0,6.24-2.624q2.592-2.592,2.592-6.176l0-4.832q0-3.648-2.592-6.24t-6.24-2.592z M31.832,105.632l0,4.832q0,2.912-2.048,4.896q-2.016,1.92-4.8,1.92t-4.768-1.92q-2.048-1.984-2.048-4.896l0-4.832q0-2.688,2.048-4.8q2.048-2.048,4.768-2.048q2.688,0,4.8,2.048q2.048,2.112,2.048,4.8z M48.40288,107.968l2.4,0q2.432,0,4.032-1.6t1.6-4.032q0-2.144-1.6-3.84q-1.696-1.76-4.032-1.76l-10.016,0l-1.984,0l0,22.464l1.984,0l0-11.232l5.216,0l6.816,11.232l2.4,0z M40.78688,105.984l0-7.232l10.016,0q1.472,0,2.592,1.056q1.056,1.056,1.056,2.528q0,1.536-1.056,2.592q-1.12,1.056-2.592,1.056l-10.016,0z M71.75776,98.72l6.176,0l0-2.016l-6.176,0q-4.608,0-7.808,3.264q-3.232,3.296-3.232,8.224q0,4.576,3.232,7.808t7.808,3.232l4.096,0l2.08,0l0-2.048l0-10.24l-2.08,0l-4.896,0l0,2.048l4.896,0l0,8.192l-4.096,0q-3.648,0-6.304-2.656t-2.656-6.336q0-4,2.656-6.752q2.624-2.72,6.304-2.72z M91.04864,96.672q-3.584,0-6.016,2.592q-2.4,2.56-2.4,6.24l0,13.696l2.016,0l0-10.048l12.864,0l0,10.048l2.016,0l0-13.696q0-3.68-2.4-6.24q-2.496-2.592-6.08-2.592z M97.51264,107.168l-12.864,0l0-1.664q0-2.752,1.856-4.768q1.888-2.048,4.544-2.048t4.608,2.048q1.856,2.016,1.856,4.768l0,1.664z M108.22752,117.408q0-1.024-0.624-1.648t-1.648-0.624q-0.704,0-1.248,0.64t-0.544,1.632q0,0.672,0.56,1.232t1.232,0.56q0.992,0,1.632-0.544t0.64-1.248z M119.9344,96.768l-4.896,0l-1.216,0l-0.8,0l0,22.432l0.8,0l1.216,0l4.896,0q4.672,0,8-3.264q3.424-3.36,3.424-8.16q0-4.544-3.424-7.808q-3.36-3.2-8-3.2z M119.9344,117.184l-4.896,0l0-18.336l4.896,0q4,0,6.72,2.624q2.688,2.624,2.688,6.304q0,4-2.688,6.688q-2.72,2.72-6.72,2.72z M137.78528,113.056q0-1.536,1.088-2.784q1.088-1.312,2.624-1.312l0.416,0l5.984,0l0-1.984l-5.984,0l-0.416,0q-1.632-0.32-2.672-1.408t-1.04-2.592q0-1.888,1.104-2.992t3.024-1.104l10.88,0l0-2.016l-10.88,0q-2.464,0-4.288,1.824q-1.824,1.76-1.824,4.288q0,1.6,0.608,2.912t1.792,1.888q-1.184,0.864-1.792,2.272t-0.608,3.008q0,2.496,1.824,4.256q1.856,1.856,4.288,1.856l10.88,0l0-2.112l-10.88,0q-1.92,0-3.024-1.088t-1.104-2.912z M173.78016,96.672l-2.432,0l-6.816,16.928l-6.432-16.928l-2.016,0l8.448,22.528z"/><path fill="#" d=""/></svg>
